<?xml version="1.0" encoding="UTF-8" standalone="no"?>
<svg
   sodipodi:docname="restart_primary.svgz"
   inkscape:version="1.2.2 (b0a8486541, 2022-12-01)"
   version="1.1"
   id="svg5048"
   height="32"
   width="32"
   xmlns:inkscape="http://www.inkscape.org/namespaces/inkscape"
   xmlns:sodipodi="http://sodipodi.sourceforge.net/DTD/sodipodi-0.dtd"
   xmlns="http://www.w3.org/2000/svg"
   xmlns:svg="http://www.w3.org/2000/svg">
  <defs
     id="defs5050">
    <style
       type="text/css"
       id="current-color-scheme">      .ColorScheme-Text {
        color:#31363b;
      }
      .ColorScheme-Background{
        color:#eff0f1;
      }
      .ColorScheme-ViewText {
        color:#31363b;
      }
      .ColorScheme-ViewBackground{
        color:#fcfcfc;
      }
      .ColorScheme-ViewHover {
        color:#3daee9;
      }
      .ColorScheme-ViewFocus{
        color:#3daee9;
      }
      .ColorScheme-ButtonText {
        color:#31363b;
      }
      .ColorScheme-ButtonBackground{
        color:#eff0f1;
      }
      .ColorScheme-ButtonHover {
        color:#3daee9;
      }
      .ColorScheme-ButtonFocus{
        color:#3daee9;
      }</style>
  </defs>
  <sodipodi:namedview
     inkscape:snap-nodes="true"
     inkscape:snap-bbox-edge-midpoints="true"
     inkscape:bbox-nodes="true"
     inkscape:document-rotation="0"
     inkscape:snap-bbox="true"
     fit-margin-bottom="0"
     fit-margin-right="0"
     fit-margin-left="0"
     fit-margin-top="0"
     inkscape:window-maximized="1"
     inkscape:window-y="58"
     inkscape:window-x="0"
     inkscape:window-height="2034"
     inkscape:window-width="3840"
     showgrid="true"
     inkscape:current-layer="layer1"
     inkscape:document-units="px"
     inkscape:cy="13.484376"
     inkscape:cx="25.515626"
     inkscape:zoom="31.999998"
     inkscape:pageshadow="2"
     inkscape:pageopacity="0.26666667"
     borderopacity="1.0"
     bordercolor="#666666"
     pagecolor="#afafaf"
     id="base"
     inkscape:showpageshadow="2"
     inkscape:pagecheckerboard="0"
     inkscape:deskcolor="#afafaf">
    <inkscape:grid
       empopacity="0.49803922"
       empcolor="#ff51e3"
       opacity="0.20392157"
       color="#3333ff"
       snapvisiblegridlinesonly="true"
       enabled="true"
       visible="true"
       empspacing="5"
       id="grid3006"
       type="xygrid" />
  </sodipodi:namedview>
  <g
     transform="translate(-6.1297173,-1009.753)"
     id="layer1"
     inkscape:groupmode="layer"
     inkscape:label="Layer 1">
    <g
       id="system-reboot"
       transform="translate(47.129714,965.75301)">
      <rect
         id="rect4546"
         width="32"
         height="32"
         x="-41"
         y="44"
         rx="0"
         ry="0"
         style="fill:none" />
      <path
         id="path2104"
         d="m -25.035156,49.005806 c -1.717749,0.0064 -3.446704,0.414645 -5.041016,1.246094 A 1,1 0 0 0 -30.5,51.601509 a 1,1 0 0 0 0.396484,0.386719 9.5,9.5 0 0 1 5.105469,-1.490234 9.5,9.5 0 0 1 9.5,9.5 9.5,9.5 0 0 1 -0.78125,3.740234 l -2.939453,-2.939453 c -0.293803,-0.293803 -0.766744,-0.293803 -1.060547,0 -0.293803,0.293803 -0.293803,0.766744 0,1.060547 l 3.421875,3.421875 a 1,1 0 0 0 0.09766,0.09766 l 0.01563,0.01563 c 0.142834,0.142834 0.3273,0.216748 0.513672,0.220703 a 1,1 0 0 0 0.03906,-0.002 c 0.04013,-0.0012 0.08154,-0.004 0.121094,-0.01172 0.0026,-5.11e-4 0.0052,-0.0014 0.0078,-0.002 a 1,1 0 0 0 0.816406,-0.517578 c 2.219014,-4.254996 1.419874,-9.469199 -1.972656,-12.863281 a 1.0001,1.0001 0 0 0 -0.002,0 c -1.697301,-1.6932 -3.847431,-2.740637 -6.105469,-3.085938 -0.564509,-0.08633 -1.136402,-0.129076 -1.708984,-0.126953 z m -8.734375,5.378907 a 1,1 0 0 0 -0.08203,0.0098 1,1 0 0 0 -0.304688,0.0332 1,1 0 0 0 -0.585938,0.492188 c -2.217192,4.251497 -1.421581,9.458918 1.964844,12.853516 a 1.0001,1.0001 0 0 0 0.002,0.002 c 3.394605,3.386401 8.603971,4.18399 12.855469,1.966797 a 1,1 0 0 0 0.423828,-1.34961 1,1 0 0 0 -0.394531,-0.386719 9.5,9.5 0 0 1 -5.107422,1.492188 9.5,9.5 0 0 1 -9.5,-9.5 9.5,9.5 0 0 1 0.779297,-3.734375 l 2.943359,2.943359 c 0.293803,0.293803 0.766745,0.293803 1.060547,0 0.293803,-0.293802 0.293803,-0.766744 0,-1.060547 l -3.328125,-3.328125 a 1,1 0 0 0 -0.324219,-0.302734 1,1 0 0 0 -0.02734,-0.02148 1,1 0 0 0 -0.01563,-0.0039 c -0.103276,-0.05893 -0.216878,-0.09183 -0.332032,-0.09766 a 1,1 0 0 0 -0.02734,-0.0078 z"
         style="fill:#ffffff" />
    </g>
  </g>
</svg>
