<?xml version="1.0" encoding="UTF-8" standalone="no"?>
<svg
   sodipodi:docname="shutdown_primary.svgz"
   inkscape:version="1.2.2 (b0a8486541, 2022-12-01)"
   version="1.1"
   id="svg5048"
   height="32"
   width="32"
   xmlns:inkscape="http://www.inkscape.org/namespaces/inkscape"
   xmlns:sodipodi="http://sodipodi.sourceforge.net/DTD/sodipodi-0.dtd"
   xmlns="http://www.w3.org/2000/svg"
   xmlns:svg="http://www.w3.org/2000/svg">
  <defs
     id="defs5050">
    <style
       type="text/css"
       id="current-color-scheme">      .ColorScheme-Text {
        color:#31363b;
      }
      .ColorScheme-Background{
        color:#eff0f1;
      }
      .ColorScheme-ViewText {
        color:#31363b;
      }
      .ColorScheme-ViewBackground{
        color:#fcfcfc;
      }
      .ColorScheme-ViewHover {
        color:#3daee9;
      }
      .ColorScheme-ViewFocus{
        color:#3daee9;
      }
      .ColorScheme-ButtonText {
        color:#31363b;
      }
      .ColorScheme-ButtonBackground{
        color:#eff0f1;
      }
      .ColorScheme-ButtonHover {
        color:#3daee9;
      }
      .ColorScheme-ButtonFocus{
        color:#3daee9;
      }</style>
  </defs>
  <sodipodi:namedview
     inkscape:snap-nodes="true"
     inkscape:snap-bbox-edge-midpoints="true"
     inkscape:bbox-nodes="true"
     inkscape:document-rotation="0"
     inkscape:snap-bbox="true"
     fit-margin-bottom="0"
     fit-margin-right="0"
     fit-margin-left="0"
     fit-margin-top="0"
     inkscape:window-maximized="0"
     inkscape:window-y="585"
     inkscape:window-x="127"
     inkscape:window-height="1257"
     inkscape:window-width="3024"
     showgrid="true"
     inkscape:current-layer="layer1"
     inkscape:document-units="px"
     inkscape:cy="18.296389"
     inkscape:cx="20.881748"
     inkscape:zoom="22.627416"
     inkscape:pageshadow="2"
     inkscape:pageopacity="0.26666667"
     borderopacity="1.0"
     bordercolor="#666666"
     pagecolor="#afafaf"
     id="base"
     inkscape:showpageshadow="2"
     inkscape:pagecheckerboard="0"
     inkscape:deskcolor="#afafaf">
    <inkscape:grid
       empopacity="0.49803922"
       empcolor="#ff51e3"
       opacity="0.20392157"
       color="#3333ff"
       snapvisiblegridlinesonly="true"
       enabled="true"
       visible="true"
       empspacing="5"
       id="grid3006"
       type="xygrid" />
  </sodipodi:namedview>
  <g
     transform="translate(-6.1297173,-1009.753)"
     id="layer1"
     inkscape:groupmode="layer"
     inkscape:label="Layer 1">
    <g
       id="system-shutdown"
       transform="translate(6.1297301,1009.7529)">
      <rect
         id="rect930"
         width="32"
         height="32"
         x="0"
         y="8.0108643e-05"
         style="opacity:0.00100002;fill:currentColor;fill-opacity:1;stroke:none;stroke-width:2.90909;stroke-linecap:round;stroke-linejoin:round;stroke-miterlimit:4;stroke-dasharray:none;stroke-opacity:1" />
      <path
         id="path404"
         d="m 16.498047,5 c -0.4155,0 -0.75,0.3345004 -0.75,0.75 v 9.5 c 0,0.4155 0.3345,0.75 0.75,0.75 0.415499,0 0.75,-0.3345 0.75,-0.75 v -9.5 c 0,-0.4154996 -0.334501,-0.75 -0.75,-0.75 z m 7.25,3.5019531 c -0.191942,0 -0.384803,0.074257 -0.53125,0.2207031 -0.292885,0.2928849 -0.292894,0.7676537 0,1.0605469 3.709973,3.7099729 3.709973,9.7236209 0,13.4335939 -3.709973,3.709973 -9.723621,3.709973 -13.4335939,0 -3.7099734,-3.709973 -3.7099734,-9.723621 0,-13.4335939 a 0.75,0.75 0 0 0 0,-1.0605469 0.75,0.75 0 0 0 -1.0605469,0 c -0.00879,0.00879 -0.01859,0.016579 -0.027344,0.025391 a 0.75,0.75 0 0 0 -0.00586,0.00977 c -4.2610854,4.2984888 -4.250978,11.2353508 0.033203,15.5195318 4.2957588,4.295758 11.2589288,4.295758 15.5546878,0 4.261287,-4.266945 4.29259,-11.169056 0.07031,-15.4746099 -0.02147,-0.028828 -0.04489,-0.054656 -0.07031,-0.080078 -0.146446,-0.1464515 -0.337355,-0.220708 -0.529296,-0.220708 z"
         style="fill:#ffffff" />
    </g>
  </g>
</svg>
