<?xml version="1.0" encoding="UTF-8" standalone="no"?>
<svg
   viewBox="0 0 640 640"
   version="1.1"
   id="svg1"
   sodipodi:docname="light.svg"
   inkscape:version="1.4.2 (ebf0e940d0, 2025-05-08)"
   xmlns:inkscape="http://www.inkscape.org/namespaces/inkscape"
   xmlns:sodipodi="http://sodipodi.sourceforge.net/DTD/sodipodi-0.dtd"
   xmlns="http://www.w3.org/2000/svg"
   xmlns:svg="http://www.w3.org/2000/svg">
  <defs
     id="defs1" />
  <sodipodi:namedview
     id="namedview1"
     pagecolor="#ffffff"
     bordercolor="#000000"
     borderopacity="0.25"
     inkscape:showpageshadow="2"
     inkscape:pageopacity="0.0"
     inkscape:pagecheckerboard="0"
     inkscape:deskcolor="#d1d1d1"
     inkscape:zoom="0.553125"
     inkscape:cx="320.90395"
     inkscape:cy="320"
     inkscape:window-width="1012"
     inkscape:window-height="596"
     inkscape:window-x="0"
     inkscape:window-y="0"
     inkscape:window-maximized="1"
     inkscape:current-layer="svg1" />
  <!--!Font Awesome Free 7.1.0 by @fontawesome - https://fontawesome.com License - https://fontawesome.com/license/free Copyright 2026 Fonticons, Inc.-->
  <path
     d="M424.5 355.1C449 329.2 464 294.4 464 256C464 176.5 399.5 112 320 112C240.5 112 176 176.5 176 256C176 294.4 191 329.2 215.5 355.1C236.8 377.5 260.4 409.1 268.8 448L371.2 448C379.6 409 403.2 377.5 424.5 355.1zM459.3 388.1C435.7 413 416 443.4 416 477.7L416 496C416 540.2 380.2 576 336 576L304 576C259.8 576 224 540.2 224 496L224 477.7C224 443.4 204.3 413 180.7 388.1C148 353.7 128 307.2 128 256C128 150 214 64 320 64C426 64 512 150 512 256C512 307.2 492 353.7 459.3 388.1zM272 248C272 261.3 261.3 272 248 272C234.7 272 224 261.3 224 248C224 199.4 263.4 160 312 160C325.3 160 336 170.7 336 184C336 197.3 325.3 208 312 208C289.9 208 272 225.9 272 248z"
     id="path1"
     style="fill:#ffffff;fill-opacity:0.80000001" />
</svg>
