<?xml version="1.0" encoding="UTF-8" standalone="no"?>
<svg
   viewBox="0 0 640 640"
   version="1.1"
   id="svg1"
   sodipodi:docname="temp.svg"
   inkscape:version="1.4.2 (ebf0e940d0, 2025-05-08)"
   xmlns:inkscape="http://www.inkscape.org/namespaces/inkscape"
   xmlns:sodipodi="http://sodipodi.sourceforge.net/DTD/sodipodi-0.dtd"
   xmlns="http://www.w3.org/2000/svg"
   xmlns:svg="http://www.w3.org/2000/svg">
  <defs
     id="defs1" />
  <sodipodi:namedview
     id="namedview1"
     pagecolor="#ffffff"
     bordercolor="#000000"
     borderopacity="0.25"
     inkscape:showpageshadow="2"
     inkscape:pageopacity="0.0"
     inkscape:pagecheckerboard="0"
     inkscape:deskcolor="#d1d1d1"
     inkscape:zoom="0.553125"
     inkscape:cx="319.09605"
     inkscape:cy="320"
     inkscape:window-width="1012"
     inkscape:window-height="596"
     inkscape:window-x="0"
     inkscape:window-y="0"
     inkscape:window-maximized="1"
     inkscape:current-layer="svg1" />
  <!--!Font Awesome Free 7.1.0 by @fontawesome - https://fontawesome.com License - https://fontawesome.com/license/free Copyright 2026 Fonticons, Inc.-->
  <path
     d="M320 64C267 64 224 107 224 160L224 324.7C194.5 351 176 389.4 176 432C176 511.5 240.5 576 320 576C399.5 576 464 511.5 464 432C464 389.4 445.5 351 416 324.7L416 160C416 107 373 64 320 64zM384 432C384 467.3 355.3 496 320 496C284.7 496 256 467.3 256 432C256 405.1 272.5 382.1 296 372.7L296 280C296 266.7 306.7 256 320 256C333.3 256 344 266.7 344 280L344 372.7C367.5 382.2 384 405.2 384 432z"
     id="path1"
     style="fill:#ffffff;fill-opacity:0.80000001" />
</svg>
